<?xml version="1.0" encoding="utf-8"?>
<!-- Generator: Adobe Illustrator 18.1.1, SVG Export Plug-In . SVG Version: 6.00 Build 0)  -->
<!DOCTYPE svg PUBLIC "-//W3C//DTD SVG 1.1//EN" "http://www.w3.org/Graphics/SVG/1.1/DTD/svg11.dtd">
<svg version="1.1" id="_x32_" xmlns="http://www.w3.org/2000/svg" xmlns:xlink="http://www.w3.org/1999/xlink" x="0px" y="0px"
	 viewBox="0 0 512 512" style="enable-background:new 0 0 512 512;" xml:space="preserve">
<style type="text/css">
	.st0{fill:#4B4B4B;}
</style>
<g>
	<path class="st0" d="M256,0C114.619,0,0,114.618,0,256s114.619,256,256,256c141.382,0,256-114.618,256-256S397.382,0,256,0z
		 M235.026,128.432c0-11.593,9.39-20.974,20.974-20.974c11.576,0,20.975,9.382,20.975,20.974V235
		c0,11.585-9.398,20.984-20.975,20.984c-11.584,0-20.974-9.398-20.974-20.984V128.432z M361.034,361.034
		c-26.822,26.848-64.076,43.509-105.034,43.5c-40.957,0.008-78.212-16.652-105.034-43.5c-26.848-26.822-43.509-64.076-43.5-105.034
		c-0.009-45.136,20.237-85.704,52.025-112.872c8.797-7.526,22.026-6.5,29.551,2.305c7.542,8.788,6.517,22.026-2.28,29.568
		c-22.898,19.627-37.356,48.517-37.364,81c0.009,29.508,11.898,56.017,31.22,75.381c19.364,19.322,45.873,31.203,75.381,31.221
		c29.509-0.018,56.017-11.898,75.381-31.221c19.322-19.364,31.203-45.873,31.221-75.381c-0.018-32.483-14.466-61.373-37.365-81
		c-8.796-7.542-9.83-20.78-2.28-29.568c7.526-8.805,20.754-9.83,29.551-2.305c31.788,27.169,52.034,67.736,52.026,112.872
		C404.542,296.957,387.882,334.212,361.034,361.034z"/>
</g>
</svg>
